<?xml version="1.0" encoding="UTF-8"?>
<!DOCTYPE svg PUBLIC "-//W3C//DTD SVG 1.1//EN" "http://www.w3.org/Graphics/SVG/1.1/DTD/svg11.dtd">
<svg xmlns="http://www.w3.org/2000/svg" version="1.1" width="512px" height="512px" style="shape-rendering:geometricPrecision; text-rendering:geometricPrecision; image-rendering:optimizeQuality; fill-rule:evenodd; clip-rule:evenodd" xmlns:xlink="http://www.w3.org/1999/xlink">
<g><path style="opacity:0.971" fill="#000000" d="M 223.5,41.5 C 300.965,40.4702 360.131,72.4702 401,137.5C 433.876,199.654 434.876,262.321 404,325.5C 398.579,335.348 392.412,344.681 385.5,353.5C 412.514,380.681 439.348,408.014 466,435.5C 471.96,447.484 469.793,457.651 459.5,466C 450.082,471.031 441.082,470.365 432.5,464C 406.32,437.653 379.986,411.486 353.5,385.5C 296.768,427.393 234.768,437.226 167.5,415C 98.9108,387.404 57.7442,337.238 44,264.5C 35.1531,193.747 56.9864,134.581 109.5,87C 142.713,59.8952 180.713,44.7285 223.5,41.5 Z M 220.5,85.5 C 290.183,83.4051 340.349,113.405 371,175.5C 392.799,232.819 384.466,285.153 346,332.5C 299.328,380.626 244.162,394.126 180.5,373C 125.116,349.267 93.6157,307.433 86,247.5C 83.3893,181.871 110.556,133.038 167.5,101C 184.431,92.8559 202.097,87.6892 220.5,85.5 Z"/></g>
</svg>
